<!-- Generated by IcoMoon.io -->
<svg version="1.1" xmlns="http://www.w3.org/2000/svg" width="32" height="32" viewBox="0 0 32 32">
<title>telephone</title>
<path fill="#878787" d="M6.485 21.271c3.168 3.773 6.982 6.743 11.335 8.845 1.657 0.782 3.874 1.711 6.343 1.87 0.153 0.007 0.3 0.013 0.453 0.013 1.657 0 2.988-0.57 4.073-1.744 0.007-0.007 0.020-0.020 0.027-0.033 0.386-0.464 0.825-0.882 1.285-1.326 0.313-0.298 0.632-0.61 0.939-0.928 1.418-1.472 1.418-3.342-0.013-4.768l-4-3.985c-0.679-0.703-1.491-1.074-2.343-1.074s-1.671 0.371-2.369 1.068l-2.383 2.374c-0.22-0.126-0.446-0.239-0.659-0.345-0.266-0.133-0.513-0.259-0.732-0.398-2.17-1.373-4.14-3.163-6.024-5.464-0.952-1.2-1.591-2.208-2.037-3.236 0.626-0.564 1.211-1.154 1.777-1.731 0.2-0.206 0.406-0.411 0.612-0.617 0.719-0.716 1.105-1.545 1.105-2.387s-0.379-1.671-1.105-2.387l-1.983-1.976c-0.233-0.232-0.453-0.458-0.679-0.69-0.439-0.451-0.899-0.915-1.351-1.333-0.686-0.67-1.491-1.021-2.343-1.021-0.845 0-1.657 0.351-2.37 1.028l-2.489 2.48c-0.905 0.902-1.418 1.996-1.524 3.262-0.126 1.585 0.166 3.269 0.925 5.305 1.165 3.15 2.922 6.074 5.531 9.197zM1.652 6.909c0.080-0.882 0.419-1.618 1.058-2.254l2.476-2.467c0.386-0.371 0.812-0.564 1.225-0.564 0.406 0 0.819 0.192 1.198 0.577 0.446 0.411 0.865 0.842 1.318 1.3 0.226 0.232 0.459 0.464 0.692 0.703l1.983 1.976c0.413 0.411 0.626 0.829 0.626 1.24s-0.213 0.829-0.626 1.24c-0.206 0.206-0.413 0.418-0.619 0.623-0.619 0.623-1.198 1.213-1.837 1.777-0.013 0.013-0.020 0.020-0.033 0.033-0.552 0.55-0.466 1.074-0.333 1.472 0.007 0.020 0.013 0.033 0.020 0.053 0.512 1.227 1.225 2.394 2.336 3.786 1.997 2.453 4.1 4.356 6.416 5.822 0.286 0.186 0.592 0.332 0.879 0.477 0.266 0.133 0.513 0.259 0.732 0.398 0.027 0.013 0.047 0.027 0.073 0.040 0.22 0.113 0.433 0.166 0.646 0.166 0.533 0 0.879-0.338 0.992-0.451l2.489-2.48c0.386-0.385 0.805-0.59 1.218-0.59 0.506 0 0.919 0.312 1.178 0.59l4.013 3.992c0.799 0.796 0.792 1.658-0.020 2.5-0.279 0.298-0.572 0.583-0.885 0.882-0.466 0.451-0.952 0.915-1.391 1.439-0.765 0.822-1.677 1.207-2.855 1.207-0.113 0-0.233-0.007-0.346-0.013-2.183-0.139-4.213-0.988-5.737-1.711-4.14-1.996-7.774-4.827-10.789-8.421-2.483-2.977-4.153-5.749-5.258-8.719-0.686-1.823-0.945-3.289-0.839-4.622z"></path>
</svg>
